<?xml version="1.0" encoding="UTF-8"?>
<svg id="Camada_1" data-name="Camada 1" xmlns="http://www.w3.org/2000/svg" viewBox="0 0 686 355">
  <defs>
    <style>
      .cls-1 {
        fill: #eff0f0;
      }
    </style>
  </defs>
  <path class="cls-1" d="M192.18,109.64c6.86-8.09,16.31-12.14,28.36-12.14,4.22,0,8.24.57,12.07,1.71,3.83,1.14,7.25,2.88,10.29,5.21,3.03,2.33,5.63,5.1,7.78,8.31,2.15,3.21,3.74,6.99,4.75,11.34.88,3.78,1.21,7.85.99,12.2-.05,1.1-.94,1.98-2.05,1.97l-46.1-.12c-1.36,0-2.39,1.31-1.97,2.6.28.85.65,1.65,1.11,2.4.92,1.5,2.09,2.7,3.5,3.63,1.41.92,2.97,1.65,4.68,2.18,1.71.53,3.58.84,5.61.92,1.67.09,3.3-.13,4.88-.66,1.58-.53,2.9-1.19,3.96-1.98,1.06-.79,2-1.6,2.84-2.44.83-.83,1.43-1.52,1.78-2.04.35-.53.53-.83.53-.92l16.28,8.38c1.07.55,1.44,1.9.8,2.92-2.94,4.65-7,8.42-12.19,11.33-5.89,3.3-12.44,4.86-19.65,4.68-9.23-.18-17.1-2.81-23.61-7.91-8.53-6.77-12.8-16.22-12.8-28.36,0-9.14,2.72-16.88,8.18-23.22Z"/>
  <path class="cls-1" d="M340.25,168.08h-16.63c-1.13,0-2.04-.91-2.04-2.04v-.06c0-1.66-1.85-2.59-3.23-1.66-1.49,1.01-3.41,1.96-5.74,2.84-4.66,1.76-9.41,2.64-14.25,2.64-9.76,0-17.9-3.36-24.4-10.09-6.51-6.73-9.76-15.45-9.76-26.18,0-7.12,1.76-13.63,5.28-19.52,3.52-5.89,8.11-10.46,13.78-13.72,5.67-3.25,11.67-4.88,18.01-4.88,2.81,0,5.34.11,7.58.33,2.24.22,4.79.64,7.65,1.25,2.86.62,5.41,1.47,7.65,2.57,2.24,1.1,4.51,2.66,6.79,4.68,2.29,2.02,4.2,4.38,5.74,7.06,1.54,2.68,2.84,6.02,3.89,10.02,1.06,4,1.63,8.51,1.71,13.52v31.2c0,1.13-.91,2.04-2.04,2.04ZM316.7,146.18c1.58-1.58,2.81-3.5,3.69-5.74.88-2.24,1.32-4.64,1.32-7.19s-.44-4.92-1.32-7.12c-.88-2.2-2.11-4.09-3.69-5.67-1.58-1.58-3.47-2.84-5.67-3.76-2.2-.92-4.62-1.39-7.25-1.39-5.19,0-9.48,1.69-12.86,5.08-3.39,3.39-5.08,7.67-5.08,12.86,0,2.55.46,4.95,1.38,7.19.92,2.24,2.15,4.16,3.69,5.74,1.54,1.58,3.43,2.82,5.67,3.69,2.24.88,4.66,1.32,7.25,1.32s4.99-.44,7.19-1.32c2.2-.88,4.09-2.11,5.67-3.69Z"/>
  <path class="cls-1" d="M361.11,115.43l-9.51-.09c-1.13-.01-2.04-.94-2.02-2.07l.2-14.01c.02-1.12.93-2.01,2.04-2.01h9.8c1.13,0,2.04-.91,2.04-2.04v-11.11c0-.68.34-1.32.91-1.7l15.93-10.58c1.36-.91,3.19.08,3.17,1.72l-.21,21.01c-.01,1.13.9,2.05,2.03,2.06l14.39.1c1.12,0,2.03.92,2.03,2.04v14.79c0,1.13-.91,2.04-2.04,2.04h-14.25c-1.13,0-2.04.91-2.04,2.04v20.65c-.09,3.52.22,6.02.92,7.52.7,1.5,2.02,2.42,3.96,2.77,1.76.35,3.63.15,5.61-.59,1.03-.39,1.92-.85,2.67-1.39.99-.71,2.37-.38,2.96.69.18.33.37.67.57,1.03.75,1.32,1.91,3.25,3.5,5.8,1.34,2.16,2.56,4.17,3.65,6.02.38.64.4,1.45,0,2.08-1.23,1.88-3.57,3.47-7,4.77-4.09,1.54-8.46,2.31-13.12,2.31-5.54,0-10.38-1.41-14.51-4.22-6.33-4.4-9.54-10.77-9.63-19.13v-28.45c0-1.12-.9-2.03-2.02-2.04Z"/>
  <path class="cls-1" d="M414.31,130.48c.09-4.66.7-8.82,1.85-12.47,1.14-3.65,2.53-6.64,4.15-8.97,1.63-2.33,3.71-4.29,6.27-5.87,2.55-1.58,4.97-2.75,7.25-3.5,2.29-.75,4.99-1.3,8.11-1.65,3.12-.35,5.67-.5,7.65-.46,1.98.05,4.37.11,7.19.2,1.44.05,2.62.08,3.55.1,1.11.03,1.98.93,1.98,2.04v16.9c0,1.13-.92,2.04-2.05,2.04-4.11-.02-7.58.14-10.41.48-3.3.4-5.94.9-7.91,1.52-1.98.62-3.45,1.61-4.42,2.97-.97,1.36-1.61,2.75-1.91,4.16-.31,1.41-.46,3.34-.46,5.8v33.05c0,1.13-.91,2.04-2.04,2.04h-16.38c-1.12,0-2.03-.9-2.04-2.02l-.37-36.36Z"/>
  <path class="cls-1" d="M493.85,99.68v67.15c0,1.13-.91,2.04-2.04,2.04h-17.15c-1.13,0-2.04-.91-2.04-2.04v-67.15c0-1.13.91-2.04,2.04-2.04,2.8,0,5.61,0,8.42,0s5.83,0,8.74,0c1.13,0,2.04.92,2.04,2.04Z"/>
  <path class="cls-1" d="M532.53,115.48l-26.46.21c-1.13,0-2.06-.91-2.06-2.04v-13.72c0-1.12.91-2.04,2.03-2.04l57.75-.25c1.14,0,2.07.93,2.05,2.07l-.22,15.34c0,.5-.2.99-.54,1.35l-29.29,31.75c-1.21,1.31-.28,3.43,1.5,3.43h28.76c1.13,0,2.05.92,2.04,2.06l-.1,13.33c0,1.12-.92,2.02-2.04,2.03l-59.64.12c-1.13,0-2.05-.91-2.05-2.04v-13.8c0-.5.18-.98.51-1.35l29.29-33.05c1.17-1.32.22-3.41-1.54-3.4Z"/>
  <path class="cls-1" d="M100.02,248.35l-.13-39.24c.17-5.83,1.05-10.85,2.64-15.05,1.59-4.2,3.41-7.44,5.47-9.71,2.06-2.27,4.61-4.05,7.65-5.34,3.04-1.29,5.75-2.08,8.1-2.38,2.36-.3,5-.45,7.91-.45,4.89,0,9.35,1.05,13.38,3.15,4.03,2.1,6.99,5.04,8.88,8.81,1.03-1.89,2.42-3.56,4.18-5.02,1.76-1.46,3.71-2.64,5.85-3.54,2.14-.9,4.37-1.59,6.69-2.06,2.32-.47,4.63-.71,6.95-.71,7.72,0,14.47,2.66,20.26,7.98,5.79,5.32,8.68,12.01,8.68,20.07v43.48h-19.68l-.26-39.49c0-4.03-1.01-7.12-3.02-9.26-2.02-2.14-4.87-3.26-8.55-3.34-7.72,0-11.58,4.2-11.58,12.61v39.49l-20.58-.26v-39.24c0-4.29-.94-7.46-2.83-9.52-1.89-2.06-4.68-3.09-8.36-3.09-1.89,0-3.58.26-5.08.77-1.5.51-2.79,1.27-3.86,2.25-1.07.99-1.91,2.3-2.51,3.92-.6,1.63-.9,3.52-.9,5.66v39.49h-19.3Z"/>
  <path class="cls-1" d="M270.79,182.55c5.53,2.96,9.84,7.14,12.93,12.54,3.09,5.4,4.63,11.58,4.63,18.53s-1.54,13.12-4.63,18.53c-3.09,5.4-7.42,9.58-12.99,12.54-5.58,2.96-11.92,4.44-19.04,4.44-9.44,0-17.45-2.62-24.06-7.85-8.32-6.69-12.48-15.91-12.48-27.66,0-9.18,2.66-16.94,7.98-23.29,6.86-8.15,16.38-12.22,28.56-12.22,7.2,0,13.57,1.48,19.1,4.44ZM261.4,227.77c2.53-1.46,4.48-3.45,5.85-5.98,1.37-2.53,2.06-5.38,2.06-8.55,0-4.8-1.54-8.79-4.63-11.96-3.09-3.17-7.03-4.76-11.84-4.76s-8.92,1.59-12.09,4.76c-3.17,3.17-4.76,7.16-4.76,11.96,0,2.4.41,4.63,1.22,6.69.81,2.06,1.97,3.82,3.47,5.27,1.5,1.46,3.28,2.62,5.34,3.47,2.06.86,4.33,1.29,6.82,1.29,3.17,0,6.02-.73,8.55-2.19Z"/>
  <path class="cls-1" d="M440.16,190.33c6.69-7.89,15.91-11.84,27.66-11.84,4.12,0,8.04.56,11.77,1.67,3.73,1.12,7.08,2.81,10.03,5.08,2.96,2.27,5.49,4.98,7.59,8.1,2.1,3.13,3.64,6.82,4.63,11.06.98,4.25,1.26,8.86.84,13.83l-49.27-.13c.17,1.8.71,3.43,1.61,4.89.9,1.46,2.04,2.64,3.41,3.54,1.37.9,2.89,1.61,4.57,2.12,1.67.51,3.49.82,5.47.9,1.63.09,3.22-.13,4.76-.64,1.54-.51,2.83-1.16,3.86-1.93,1.03-.77,1.95-1.56,2.77-2.38.81-.81,1.39-1.48,1.74-1.99.34-.51.51-.81.51-.9l17.75,9.13c-2.92,5.4-7.25,9.71-12.99,12.93-5.75,3.22-12.14,4.74-19.17,4.57-9.01-.17-16.68-2.74-23.03-7.72-8.32-6.6-12.48-15.82-12.48-27.66,0-8.92,2.66-16.47,7.98-22.64Z"/>
  <path class="cls-1" d="M558.45,243.4c-5.96,4.16-13.49,6.02-22.58,5.6-4.89-.34-9.26-1.18-13.12-2.51-3.86-1.33-6.84-2.85-8.94-4.57-2.1-1.71-3.79-3.41-5.08-5.08-1.29-1.67-2.17-3.09-2.64-4.25l-.69-1.69,19.92-8.41.13.64c0,.51.21,1.12.64,1.8.43.69.98,1.39,1.67,2.12.69.73,1.76,1.37,3.22,1.93,1.46.56,3.17.92,5.15,1.09.69.09,1.56.11,2.64.06,1.07-.04,2.12-.13,3.15-.26,1.03-.13,1.93-.49,2.7-1.09.77-.6,1.16-1.37,1.16-2.32,0-.69-.15-1.29-.45-1.8-.3-.51-.64-.94-1.03-1.29-.39-.34-1.07-.64-2.06-.9-.99-.26-1.84-.43-2.57-.51-.73-.08-1.91-.26-3.54-.51-1.03-.17-1.8-.26-2.32-.26-4.12-.77-7.57-1.61-10.36-2.51-2.79-.9-5.47-2.19-8.04-3.86-2.57-1.67-4.44-3.88-5.6-6.63-1.16-2.74-1.65-6.05-1.48-9.91.17-4.29,1.56-8.06,4.18-11.32,2.62-3.26,6.11-5.74,10.49-7.46,4.37-1.71,9.22-2.4,14.54-2.06,1.63.09,3.15.22,4.57.39,1.42.17,2.77.37,4.05.58,1.29.22,2.49.49,3.6.84,1.11.34,2.19.71,3.22,1.09,1.03.39,1.99.79,2.89,1.22.9.43,1.76.92,2.57,1.48.81.56,1.56,1.14,2.25,1.74.69.6,1.35,1.24,1.99,1.93.64.69,1.24,1.37,1.8,2.06.56.69,1.14,1.46,1.74,2.32l-9.04,4.76-10.26,5.4c.08,0,.06-.17-.06-.51-.13-.34-.39-.73-.77-1.16-.39-.43-.9-.88-1.54-1.35-.64-.47-1.54-.9-2.7-1.29-1.16-.39-2.51-.62-4.05-.71-5.49-.26-8.28.77-8.36,3.09,0,.86.19,1.54.58,2.06.39.51,1.05.94,1.99,1.29.94.34,1.82.62,2.64.84.81.22,2.12.49,3.92.84.43.09.73.13.9.13,3.77.69,7.03,1.42,9.78,2.19,12.86,3.77,19.08,10.46,18.65,20.07-.34,6.95-3.5,12.5-9.46,16.66Z"/>
  <path class="cls-1" d="M169.75,159.24c-7.04,7.3-15.39,11.08-25.06,11.34-13.1.26-23.5-2.95-31.2-9.63-7.68-6.66-12.09-16.57-13.25-29.71,0-.07,0-.13,0-.2l-.13-58.27c0-1.13.91-2.05,2.04-2.05h17.41c1.13,0,2.04.91,2.04,2.04v27.45c0,1.65,1.88,2.65,3.21,1.67.2-.14.4-.29.61-.43,1.92-1.28,3.58-1.81,6.33-2.57,2.37-.66,4.84-1.16,7.39-1.52,2.55-.35,5.06-.53,7.52-.53,3.25,0,6.37.48,9.36,1.45,2.99.97,5.72,2.27,8.18,3.89,2.46,1.63,4.73,3.58,6.79,5.87,2.07,2.29,3.8,4.79,5.21,7.52,1.41,2.73,2.48,5.63,3.23,8.71.75,3.08,1.12,6.2,1.12,9.37-.18,9.76-3.78,18.29-10.82,25.59ZM160.78,132.79c0-5.06-1.76-9.23-5.28-12.53-3.52-3.3-7.96-4.95-13.32-4.95-3.61,0-6.82.77-9.63,2.31-2.82,1.54-5.01,3.63-6.6,6.27-1.58,2.64-2.37,5.63-2.37,8.97,0,5.01,1.74,9.17,5.21,12.47,3.47,3.3,7.91,4.95,13.32,4.95s9.87-1.65,13.39-4.95c3.52-3.3,5.28-7.47,5.28-12.53Z"/>
  <rect class="cls-1" x="472.61" y="79.72" width="21.24" height="15.6" rx="2.02" ry="2.02"/>
  <g>
    <path class="cls-1" d="M106.22,264.61h-5.89v-1.5h13.49v1.5h-5.88v13.62h-1.72v-13.62Z"/>
    <path class="cls-1" d="M116.11,273.25c.12,2.27,1.63,3.92,3.96,3.92,1.78,0,2.8-.77,3.43-1.91h1.6c-.55,1.5-2.04,3.27-5.16,3.27-3.66,0-5.45-2.76-5.45-5.6,0-3.29,2.18-5.67,5.4-5.67,4.02,0,5.38,3,5.38,5.55,0,.15,0,.28,0,.45h-9.15ZM123.57,272.01c-.1-1.4-.84-3.43-3.7-3.43-2.31,0-3.51,1.48-3.72,3.43h7.41Z"/>
    <path class="cls-1" d="M130.15,270.45c0-.96,0-1.94-.02-2.9h1.55c.03.3.07,1.4.07,2.48.72-1.7,2.33-2.79,4.38-2.78v1.58c-2.47-.03-4.38,1.6-4.38,4.77v4.62h-1.6v-7.77Z"/>
    <path class="cls-1" d="M149.07,275.69c0,.94.06,2.29.1,2.54h-1.53c-.08-.43-.12-1.3-.13-1.67-.56,1.16-1.76,1.96-4.1,1.96-3.05,0-4.13-1.84-4.13-3.41,0-2.71,2.49-3.46,5.51-3.46h2.71v-.64c0-1.25-.54-2.46-3.02-2.46-2.22,0-2.75,1-2.98,2.09h-1.6c.14-1.44,1.09-3.39,4.59-3.39s4.58,1.81,4.58,3.57v4.86ZM147.5,272.86c-.36,0-1.07,0-2.66,0-2.67,0-3.95.57-3.95,2.17,0,1.17.85,2.16,2.78,2.16,3.12,0,3.84-1.89,3.84-3.78v-.55Z"/>
    <path class="cls-1" d="M156.52,276.49v6.47h-1.6v-12.73c0-.89,0-1.79-.02-2.68h1.56c.04.33.07,1.06.07,1.98.63-1.19,1.93-2.27,4.22-2.27,2.91,0,4.96,2.37,4.96,5.46,0,3.42-2.34,5.81-5.27,5.81-2.34,0-3.31-1.05-3.91-2.04ZM164.05,272.76c0-2-1.16-4.1-3.75-4.1s-3.82,1.9-3.82,4.28,1.25,4.16,3.78,4.16,3.8-2.1,3.8-4.34Z"/>
    <path class="cls-1" d="M171.35,273.25c.12,2.27,1.63,3.92,3.96,3.92,1.78,0,2.8-.77,3.43-1.91h1.6c-.55,1.5-2.04,3.27-5.16,3.27-3.66,0-5.45-2.76-5.45-5.6,0-3.29,2.18-5.67,5.4-5.67,4.02,0,5.38,3,5.38,5.55,0,.15,0,.28,0,.45h-9.15ZM178.8,272.01c-.1-1.4-.84-3.43-3.7-3.43-2.31,0-3.51,1.48-3.72,3.43h7.41Z"/>
    <path class="cls-1" d="M194.82,275.11c0,1.04,0,2.07.02,3.12h-1.54c-.04-.3-.08-1.13-.08-1.97-.53,1.32-1.54,2.27-3.9,2.27s-4.03-1.22-4.03-4.32v-6.65h1.6v6.34c0,1.67.67,3.21,2.74,3.21,2.49,0,3.58-1.45,3.58-4.75v-4.79h1.6v7.56Z"/>
    <path class="cls-1" d="M199.34,267.55h2.18v-3.52h1.61v3.52h2.88v1.33h-2.88v6.24c0,1.32.35,1.9,1.55,1.9.32,0,.78-.02,1.09-.1v1.23c-.46.17-.95.18-1.51.18-2.09,0-2.74-.94-2.74-3.05v-6.4h-2.18v-1.33Z"/>
    <path class="cls-1" d="M219.46,275.69c0,.94.06,2.29.1,2.54h-1.53c-.08-.43-.12-1.3-.13-1.67-.56,1.16-1.76,1.96-4.1,1.96-3.05,0-4.13-1.84-4.13-3.41,0-2.71,2.49-3.46,5.51-3.46h2.71v-.64c0-1.25-.54-2.46-3.02-2.46-2.22,0-2.75,1-2.98,2.09h-1.6c.14-1.44,1.09-3.39,4.59-3.39s4.58,1.81,4.58,3.57v4.86ZM217.88,272.86c-.36,0-1.07,0-2.66,0-2.67,0-3.95.57-3.95,2.17,0,1.17.85,2.16,2.78,2.16,3.12,0,3.84-1.89,3.84-3.78v-.55Z"/>
    <path class="cls-1" d="M247.75,273.91c-.91,2.58-2.75,4.64-6.93,4.64-4.91,0-7.67-3.45-7.67-7.84s3.07-7.91,7.76-7.91c4.29,0,6.27,2.29,6.9,4.76h-1.76c-.75-1.79-2.08-3.27-5.16-3.27-3.65,0-5.93,2.68-5.93,6.37s2.29,6.42,5.95,6.42c3.04,0,4.24-1.33,5.12-3.16h1.72Z"/>
    <path class="cls-1" d="M263.25,272.89c0,2.87-1.81,5.64-5.61,5.64-3.5,0-5.52-2.67-5.52-5.62,0-3.1,2.15-5.65,5.61-5.65s5.52,2.76,5.52,5.63ZM253.78,272.9c0,2.13,1.41,4.24,3.92,4.24s3.9-1.95,3.9-4.23-1.43-4.28-3.96-4.28-3.87,1.99-3.87,4.27Z"/>
    <path class="cls-1" d="M278.1,276.77c0,4.07-1.22,6.48-5.59,6.48-4.03,0-4.9-2.35-5.1-3.63h1.65c.34,1.2,1.18,2.28,3.55,2.28,3.4,0,3.92-2.19,3.92-5.07v-.62c-.66,1.36-1.89,2.21-4.15,2.21-2.99,0-5.08-2.35-5.08-5.41,0-3.45,2.51-5.76,5.34-5.76,2.5,0,3.55,1.17,3.9,2.07,0-.56.02-1.46.06-1.77h1.54c-.02,1.03-.02,2.06-.02,3.09v6.13ZM268.93,272.94c0,2.39,1.59,4.06,3.79,4.06,2.39,0,3.83-1.49,3.83-4.18s-1.38-4.16-3.71-4.16c-2.69,0-3.92,2.19-3.92,4.28Z"/>
    <path class="cls-1" d="M283.91,270.24c0-.9,0-1.89-.02-2.69h1.55c.04.39.07,1.34.07,2.15.46-1.11,1.61-2.45,3.96-2.45,2.47,0,4.12,1.52,4.12,4.5v6.47h-1.61v-6.17c0-1.91-.73-3.4-2.85-3.4-2.41,0-3.61,1.87-3.61,4.5v5.06h-1.61v-7.99Z"/>
    <path class="cls-1" d="M299.38,262.22h1.6v2.33h-1.6v-2.33ZM299.38,267.55h1.6v10.68h-1.6v-10.68Z"/>
    <path class="cls-1" d="M305.48,267.55h2.18v-3.52h1.61v3.52h2.88v1.33h-2.88v6.24c0,1.32.35,1.9,1.55,1.9.32,0,.78-.02,1.09-.1v1.23c-.46.17-.95.18-1.51.18-2.09,0-2.74-.94-2.74-3.05v-6.4h-2.18v-1.33Z"/>
    <path class="cls-1" d="M316.72,262.22h1.6v2.33h-1.6v-2.33ZM316.72,267.55h1.6v10.68h-1.6v-10.68Z"/>
    <path class="cls-1" d="M324.45,267.55c.83,1.97,3.57,8.04,3.97,9.14h.03c.26-.79.97-2.51,3.89-9.14h1.65l-4.75,10.68h-1.73l-4.81-10.68h1.76Z"/>
    <path class="cls-1" d="M348.33,272.89c0,2.87-1.81,5.64-5.61,5.64-3.5,0-5.52-2.67-5.52-5.62,0-3.1,2.15-5.65,5.61-5.65s5.52,2.76,5.52,5.63ZM338.85,272.9c0,2.13,1.41,4.24,3.92,4.24s3.9-1.95,3.9-4.23-1.43-4.28-3.96-4.28-3.87,1.99-3.87,4.27Z"/>
    <path class="cls-1" d="M359.82,272.07v1.43h-6.69v-1.43h6.69Z"/>
    <path class="cls-1" d="M379.44,273.91c-.91,2.58-2.75,4.64-6.93,4.64-4.91,0-7.67-3.45-7.67-7.84s3.07-7.91,7.76-7.91c4.29,0,6.27,2.29,6.9,4.76h-1.76c-.75-1.79-2.08-3.27-5.16-3.27-3.65,0-5.93,2.68-5.93,6.37s2.29,6.42,5.95,6.42c3.04,0,4.24-1.33,5.12-3.16h1.72Z"/>
    <path class="cls-1" d="M394.95,272.89c0,2.87-1.81,5.64-5.61,5.64-3.5,0-5.52-2.67-5.52-5.62,0-3.1,2.15-5.65,5.61-5.65s5.52,2.76,5.52,5.63ZM385.47,272.9c0,2.13,1.41,4.24,3.92,4.24s3.9-1.95,3.9-4.23-1.43-4.28-3.96-4.28-3.87,1.99-3.87,4.27Z"/>
    <path class="cls-1" d="M399.81,270.3c0-.92,0-1.84-.02-2.75h1.56c.05.44.07,1.08.05,1.69.54-.96,1.58-1.99,3.51-1.99,1.72,0,2.82.85,3.29,2.13.57-.96,1.57-2.13,3.69-2.13s3.77,1.19,3.77,4.33v6.64h-1.59v-6.57c0-1.34-.42-3-2.47-3-1.84,0-3.06,1.27-3.06,3.74v5.84h-1.6v-6.68c0-1.34-.45-2.9-2.49-2.9-2.2,0-3.04,1.75-3.04,3.93v5.65h-1.6v-7.92Z"/>
    <path class="cls-1" d="M423.07,276.49v6.47h-1.6v-12.73c0-.89,0-1.79-.02-2.68h1.56c.04.33.07,1.06.07,1.98.63-1.19,1.93-2.27,4.22-2.27,2.91,0,4.96,2.37,4.96,5.46,0,3.42-2.34,5.81-5.27,5.81-2.34,0-3.31-1.05-3.91-2.04ZM430.59,272.76c0-2-1.16-4.1-3.75-4.1s-3.82,1.9-3.82,4.28,1.25,4.16,3.78,4.16,3.8-2.1,3.8-4.34Z"/>
    <path class="cls-1" d="M447.4,272.89c0,2.87-1.81,5.64-5.61,5.64-3.5,0-5.52-2.67-5.52-5.62,0-3.1,2.15-5.65,5.61-5.65s5.52,2.76,5.52,5.63ZM437.92,272.9c0,2.13,1.41,4.24,3.92,4.24s3.9-1.95,3.9-4.23-1.43-4.28-3.96-4.28-3.87,1.99-3.87,4.27Z"/>
    <path class="cls-1" d="M452.27,270.45c0-.96,0-1.94-.02-2.9h1.55c.03.3.07,1.4.07,2.48.72-1.7,2.33-2.79,4.38-2.78v1.58c-2.47-.03-4.38,1.6-4.38,4.77v4.62h-1.6v-7.77Z"/>
    <path class="cls-1" d="M461.81,267.55h2.18v-3.52h1.61v3.52h2.88v1.33h-2.88v6.24c0,1.32.35,1.9,1.55,1.9.32,0,.78-.02,1.09-.1v1.23c-.46.17-.95.18-1.51.18-2.09,0-2.74-.94-2.74-3.05v-6.4h-2.18v-1.33Z"/>
    <path class="cls-1" d="M481.93,275.69c0,.94.06,2.29.1,2.54h-1.53c-.08-.43-.12-1.3-.13-1.67-.56,1.16-1.76,1.96-4.1,1.96-3.05,0-4.13-1.84-4.13-3.41,0-2.71,2.49-3.46,5.51-3.46h2.71v-.64c0-1.25-.54-2.46-3.02-2.46-2.22,0-2.75,1-2.98,2.09h-1.6c.14-1.44,1.09-3.39,4.59-3.39s4.58,1.81,4.58,3.57v4.86ZM480.36,272.86c-.36,0-1.07,0-2.66,0-2.67,0-3.95.57-3.95,2.17,0,1.17.85,2.16,2.78,2.16,3.12,0,3.84-1.89,3.84-3.78v-.55Z"/>
    <path class="cls-1" d="M487.77,270.3c0-.92,0-1.84-.02-2.75h1.56c.05.44.07,1.08.05,1.69.54-.96,1.58-1.99,3.51-1.99,1.72,0,2.82.85,3.29,2.13.57-.96,1.57-2.13,3.69-2.13s3.77,1.19,3.77,4.33v6.64h-1.59v-6.57c0-1.34-.42-3-2.47-3-1.84,0-3.06,1.27-3.06,3.74v5.84h-1.6v-6.68c0-1.34-.45-2.9-2.49-2.9-2.2,0-3.04,1.75-3.04,3.93v5.65h-1.6v-7.92Z"/>
    <path class="cls-1" d="M510.11,273.25c.12,2.27,1.63,3.92,3.96,3.92,1.78,0,2.8-.77,3.43-1.91h1.6c-.55,1.5-2.04,3.27-5.16,3.27-3.66,0-5.45-2.76-5.45-5.6,0-3.29,2.18-5.67,5.4-5.67,4.02,0,5.38,3,5.38,5.55,0,.15,0,.28,0,.45h-9.15ZM517.56,272.01c-.1-1.4-.84-3.43-3.7-3.43-2.31,0-3.51,1.48-3.72,3.43h7.41Z"/>
    <path class="cls-1" d="M524.14,270.24c0-.9,0-1.89-.02-2.69h1.55c.04.39.07,1.34.07,2.15.46-1.11,1.61-2.45,3.96-2.45,2.47,0,4.12,1.52,4.12,4.5v6.47h-1.61v-6.17c0-1.91-.73-3.4-2.85-3.4-2.41,0-3.61,1.87-3.61,4.5v5.06h-1.61v-7.99Z"/>
    <path class="cls-1" d="M537.84,267.55h2.18v-3.52h1.61v3.52h2.88v1.33h-2.88v6.24c0,1.32.35,1.9,1.55,1.9.32,0,.78-.02,1.09-.1v1.23c-.46.17-.95.18-1.51.18-2.09,0-2.74-.94-2.74-3.05v-6.4h-2.18v-1.33Z"/>
    <path class="cls-1" d="M557.96,275.69c0,.94.06,2.29.1,2.54h-1.53c-.08-.43-.12-1.3-.13-1.67-.56,1.16-1.76,1.96-4.1,1.96-3.05,0-4.13-1.84-4.13-3.41,0-2.71,2.49-3.46,5.51-3.46h2.71v-.64c0-1.25-.54-2.46-3.02-2.46-2.22,0-2.75,1-2.98,2.09h-1.6c.14-1.44,1.09-3.39,4.59-3.39s4.58,1.81,4.58,3.57v4.86ZM556.39,272.86c-.36,0-1.07,0-2.66,0-2.67,0-3.95.57-3.95,2.17,0,1.17.85,2.16,2.78,2.16,3.12,0,3.84-1.89,3.84-3.78v-.55Z"/>
    <path class="cls-1" d="M563.7,278.23v-16h1.6v16h-1.6Z"/>
  </g>
  <path class="cls-1" d="M424.92,248.56h-16.63c-1.13,0-2.04-.91-2.04-2.04v-.06c0-1.66-1.85-2.59-3.23-1.66-1.49,1.01-3.41,1.96-5.74,2.84-4.66,1.76-9.41,2.64-14.25,2.64-9.76,0-17.9-3.36-24.4-10.09-6.51-6.73-9.76-15.45-9.76-26.18,0-7.12,1.76-13.63,5.28-19.52,3.52-5.89,8.11-10.46,13.78-13.72,5.67-3.25,11.67-4.88,18.01-4.88,2.81,0,5.34.11,7.58.33,2.24.22,4.79.64,7.65,1.25,2.86.62,5.41,1.47,7.65,2.57,2.24,1.1,4.51,2.66,6.79,4.68,2.29,2.02,4.2,4.38,5.74,7.06,1.54,2.68,2.84,6.02,3.89,10.02,1.06,4,1.63,8.51,1.71,13.52v31.2c0,1.13-.91,2.04-2.04,2.04ZM401.37,226.66c1.58-1.58,2.81-3.5,3.69-5.74.88-2.24,1.32-4.64,1.32-7.19s-.44-4.92-1.32-7.12c-.88-2.2-2.11-4.09-3.69-5.67-1.58-1.58-3.47-2.84-5.67-3.76-2.2-.92-4.62-1.39-7.25-1.39-5.19,0-9.48,1.69-12.86,5.08-3.39,3.39-5.08,7.67-5.08,12.86,0,2.55.46,4.95,1.38,7.19s2.15,4.16,3.69,5.74c1.54,1.58,3.43,2.82,5.67,3.69,2.24.88,4.66,1.32,7.25,1.32s4.99-.44,7.19-1.32c2.2-.88,4.09-2.11,5.67-3.69Z"/>
  <path class="cls-1" d="M577.29,98.14c-4.87,0-8.82,3.95-8.82,8.82s3.95,8.82,8.82,8.82,8.82-3.95,8.82-8.82-3.95-8.82-8.82-8.82ZM577.29,113.98c-3.88,0-7.02-3.14-7.02-7.02s3.14-7.02,7.02-7.02,7.02,3.14,7.02,7.02-3.14,7.02-7.02,7.02Z"/>
  <path class="cls-1" d="M579.77,108.04c-.42.95-1.37,1.62-2.47,1.62-1.49,0-2.7-1.21-2.7-2.7s1.21-2.7,2.7-2.7c1.07,0,1.99.63,2.43,1.53h2.37c-.53-2.17-2.47-3.78-4.8-3.78-2.73,0-4.95,2.22-4.95,4.95s2.22,4.95,4.95,4.95c2.36,0,4.33-1.66,4.83-3.87h-2.35Z"/>
  <path class="cls-1" d="M294.57,210c.09-4.66.7-8.82,1.85-12.47,1.14-3.65,2.53-6.64,4.15-8.97,1.63-2.33,3.71-4.29,6.27-5.87,2.55-1.58,4.97-2.75,7.25-3.5,2.29-.75,4.99-1.3,8.11-1.65,3.12-.35,5.67-.5,7.65-.46,1.98.05,4.37.11,7.19.2,1.44.05,2.62.08,3.55.1,1.11.03,1.98.93,1.98,2.04v16.9c0,1.13-.92,2.04-2.05,2.04-4.11-.02-7.58.14-10.41.48-3.3.4-5.94.9-7.91,1.52-1.98.62-3.45,1.61-4.42,2.97-.97,1.36-1.61,2.75-1.91,4.16-.31,1.41-.46,3.34-.46,5.8v33.05c0,1.13-.91,2.04-2.04,2.04h-16.38c-1.12,0-2.03-.9-2.04-2.02l-.37-36.36Z"/>
</svg>